<svg width="118" height="172" viewBox="0 0 118 172" fill="none" xmlns="http://www.w3.org/2000/svg">
<mask id="path-1-outside-1_13_239" maskUnits="userSpaceOnUse" x="0" y="0" width="118" height="172" fill="black">
<rect fill="white" width="118" height="172"/>
<path d="M18.4375 148.949H54.7363V30.9492L14.6348 56.877L4.72461 39.9375L59.6914 3.75391H79.5117V148.949H114.889V169H18.4375V148.949Z"/>
</mask>
<path d="M18.4375 148.949H54.7363V30.9492L14.6348 56.877L4.72461 39.9375L59.6914 3.75391H79.5117V148.949H114.889V169H18.4375V148.949Z" fill="black"/>
<path d="M18.4375 148.949V145.949H15.4375V148.949H18.4375ZM54.7363 148.949V151.949H57.7363V148.949H54.7363ZM54.7363 30.9492H57.7363V25.4371L53.1075 28.4299L54.7363 30.9492ZM14.6348 56.877L12.0453 58.3919L13.6294 61.0994L16.2636 59.3962L14.6348 56.877ZM4.72461 39.9375L3.07508 37.4317L0.698287 38.9963L2.13519 41.4524L4.72461 39.9375ZM59.6914 3.75391V0.753906H58.7926L58.0419 1.2481L59.6914 3.75391ZM79.5117 3.75391H82.5117V0.753906H79.5117V3.75391ZM79.5117 148.949H76.5117V151.949H79.5117V148.949ZM114.889 148.949H117.889V145.949H114.889V148.949ZM114.889 169V172H117.889V169H114.889ZM18.4375 169H15.4375V172H18.4375V169ZM18.4375 151.949H54.7363V145.949H18.4375V151.949ZM57.7363 148.949V30.9492H51.7363V148.949H57.7363ZM53.1075 28.4299L13.0059 54.3577L16.2636 59.3962L56.3652 33.4685L53.1075 28.4299ZM17.2242 55.3621L7.31403 38.4226L2.13519 41.4524L12.0453 58.3919L17.2242 55.3621ZM6.37413 42.4433L61.3409 6.25971L58.0419 1.2481L3.07508 37.4317L6.37413 42.4433ZM59.6914 6.75391H79.5117V0.753906H59.6914V6.75391ZM76.5117 3.75391V148.949H82.5117V3.75391H76.5117ZM79.5117 151.949H114.889V145.949H79.5117V151.949ZM111.889 148.949V169H117.889V148.949H111.889ZM114.889 166H18.4375V172H114.889V166ZM21.4375 169V148.949H15.4375V169H21.4375Z" fill="white" mask="url(#path-1-outside-1_13_239)"/>
</svg>
