<svg width="116" height="180" viewBox="0 0 116 180" fill="none" xmlns="http://www.w3.org/2000/svg">
<mask id="path-1-outside-1_13_239" maskUnits="userSpaceOnUse" x="0" y="0" width="116" height="180" fill="black">
<rect fill="white" width="116" height="180"/>
<path d="M3.76705 177V161.915L60.4205 99.8977C67.0691 92.6345 72.5445 86.321 76.8466 80.9574C81.1487 75.5379 84.3333 70.4536 86.4006 65.7045C88.5237 60.8996 89.5852 55.8712 89.5852 50.6193C89.5852 44.5852 88.1326 39.3613 85.2273 34.9474C82.3778 30.5336 78.4669 27.1255 73.4943 24.723C68.5218 22.3205 62.9347 21.1193 56.733 21.1193C50.1402 21.1193 44.3854 22.4882 39.4688 25.2258C34.608 27.9077 30.8367 31.679 28.1548 36.5398C25.5289 41.4006 24.2159 47.0994 24.2159 53.6364H4.4375C4.4375 43.5795 6.75616 34.7519 11.3935 27.1534C16.0308 19.5549 22.3442 13.6326 30.3338 9.38635C38.3793 5.14014 47.4025 3.01704 57.4034 3.01704C67.4602 3.01704 76.3717 5.14014 84.1378 9.38635C91.9039 13.6326 97.9938 19.3594 102.408 26.5668C106.821 33.7741 109.028 41.7917 109.028 50.6193C109.028 56.9328 107.883 63.1065 105.592 69.1406C103.357 75.1188 99.4465 81.7955 93.8594 89.1705C88.3281 96.4896 80.6458 105.429 70.8125 115.989L32.2614 157.222V158.562H112.045V177H3.76705Z"/>
</mask>
<path d="M3.76705 177V161.915L60.4205 99.8977C67.0691 92.6345 72.5445 86.321 76.8466 80.9574C81.1487 75.5379 84.3333 70.4536 86.4006 65.7045C88.5237 60.8996 89.5852 55.8712 89.5852 50.6193C89.5852 44.5852 88.1326 39.3613 85.2273 34.9474C82.3778 30.5336 78.4669 27.1255 73.4943 24.723C68.5218 22.3205 62.9347 21.1193 56.733 21.1193C50.1402 21.1193 44.3854 22.4882 39.4688 25.2258C34.608 27.9077 30.8367 31.679 28.1548 36.5398C25.5289 41.4006 24.2159 47.0994 24.2159 53.6364H4.4375C4.4375 43.5795 6.75616 34.7519 11.3935 27.1534C16.0308 19.5549 22.3442 13.6326 30.3338 9.38635C38.3793 5.14014 47.4025 3.01704 57.4034 3.01704C67.4602 3.01704 76.3717 5.14014 84.1378 9.38635C91.9039 13.6326 97.9938 19.3594 102.408 26.5668C106.821 33.7741 109.028 41.7917 109.028 50.6193C109.028 56.9328 107.883 63.1065 105.592 69.1406C103.357 75.1188 99.4465 81.7955 93.8594 89.1705C88.3281 96.4896 80.6458 105.429 70.8125 115.989L32.2614 157.222V158.562H112.045V177H3.76705Z" fill="black"/>
<path d="M3.76705 177H0.767046V180H3.76705V177ZM3.76705 161.915L1.55211 159.891L0.767046 160.751V161.915H3.76705ZM60.4205 99.8977L58.2076 97.8721L58.2055 97.8743L60.4205 99.8977ZM76.8466 80.9574L79.1868 82.8344L79.1916 82.8285L79.1963 82.8226L76.8466 80.9574ZM86.4006 65.7045L83.6565 64.492L83.6532 64.4996L83.6499 64.5072L86.4006 65.7045ZM85.2273 34.9474L82.7069 36.5745L82.7141 36.5857L82.7214 36.5969L85.2273 34.9474ZM73.4943 24.723L74.7994 22.0218L74.7994 22.0218L73.4943 24.723ZM39.4688 25.2258L40.918 27.8526L40.9282 27.8469L39.4688 25.2258ZM28.1548 36.5398L25.5281 35.0905L25.5217 35.1022L25.5154 35.1138L28.1548 36.5398ZM24.2159 53.6364V56.6364H27.2159V53.6364H24.2159ZM4.4375 53.6364H1.4375V56.6364H4.4375V53.6364ZM11.3935 27.1534L13.9542 28.7162L13.9542 28.7162L11.3935 27.1534ZM30.3338 9.38635L28.9335 6.73319L28.9259 6.73725L30.3338 9.38635ZM84.1378 9.38635L85.577 6.75412L85.577 6.75412L84.1378 9.38635ZM102.408 26.5668L99.8493 28.1335L102.408 26.5668ZM105.592 69.1406L102.788 68.0759L102.785 68.083L102.782 68.0901L105.592 69.1406ZM93.8594 89.1705L91.4681 87.3589L91.466 87.3617L93.8594 89.1705ZM70.8125 115.989L73.0039 118.037L73.008 118.033L70.8125 115.989ZM32.2614 157.222L30.07 155.173L29.2614 156.038V157.222H32.2614ZM32.2614 158.562H29.2614V161.562H32.2614V158.562ZM112.045 158.562H115.045V155.562H112.045V158.562ZM112.045 177V180H115.045V177H112.045ZM6.76705 177V161.915H0.767046V177H6.76705ZM5.98198 163.938L62.6354 101.921L58.2055 97.8743L1.55211 159.891L5.98198 163.938ZM62.6333 101.923C69.309 94.6306 74.8307 88.2655 79.1868 82.8344L74.5064 79.0803C70.2583 84.3766 64.8293 90.6383 58.2076 97.8721L62.6333 101.923ZM79.1963 82.8226C83.6099 77.2626 86.9518 71.9547 89.1513 66.9019L83.6499 64.5072C81.7149 68.9525 78.6875 73.8131 74.4969 79.0922L79.1963 82.8226ZM89.1446 66.917C91.4365 61.7303 92.5852 56.2889 92.5852 50.6193H86.5852C86.5852 55.4535 85.6109 60.069 83.6565 64.492L89.1446 66.917ZM92.5852 50.6193C92.5852 44.0846 91.0048 38.2685 87.7331 33.298L82.7214 36.5969C85.2603 40.4541 86.5852 45.0859 86.5852 50.6193H92.5852ZM87.7477 33.3203C84.5839 28.4195 80.2415 24.6511 74.7994 22.0218L72.1892 27.4243C76.6922 29.5999 80.1718 32.6477 82.7069 36.5745L87.7477 33.3203ZM74.7994 22.0218C69.3723 19.3997 63.3307 18.1193 56.733 18.1193V24.1193C62.5387 24.1193 67.6712 25.2414 72.1892 27.4243L74.7994 22.0218ZM56.733 18.1193C49.7174 18.1193 43.4434 19.579 38.0093 22.6048L40.9282 27.8469C45.3275 25.3973 50.5629 24.1193 56.733 24.1193V18.1193ZM38.0195 22.5991C32.663 25.5544 28.4834 29.734 25.5281 35.0905L30.7816 37.989C33.1899 33.624 36.5529 30.2609 40.918 27.8526L38.0195 22.5991ZM25.5154 35.1138C22.6129 40.4864 21.2159 46.6928 21.2159 53.6364H27.2159C27.2159 47.5061 28.4448 42.3147 30.7943 37.9657L25.5154 35.1138ZM24.2159 50.6364H4.4375V56.6364H24.2159V50.6364ZM7.4375 53.6364C7.4375 44.0576 9.64011 35.7852 13.9542 28.7162L8.83269 25.5906C3.8722 33.7186 1.4375 43.1014 1.4375 53.6364H7.4375ZM13.9542 28.7162C18.3067 21.5844 24.2186 16.0338 31.7417 12.0355L28.9259 6.73725C20.4698 11.2314 13.7548 17.5254 8.83269 25.5906L13.9542 28.7162ZM31.7341 12.0395C39.3062 8.0431 47.841 6.01704 57.4034 6.01704V0.0170391C46.9639 0.0170391 37.4523 2.23719 28.9335 6.7332L31.7341 12.0395ZM57.4034 6.01704C67.0267 6.01704 75.4309 8.04492 82.6986 12.0186L85.577 6.75412C77.3124 2.23537 67.8938 0.0170391 57.4034 0.0170391V6.01704ZM82.6986 12.0186C90.0276 16.0258 95.7222 21.3944 99.8493 28.1335L104.966 25C100.265 17.3243 93.7802 11.2393 85.577 6.75412L82.6986 12.0186ZM99.8493 28.1335C103.961 34.8478 106.028 42.3189 106.028 50.6193H112.028C112.028 41.2645 109.682 32.7005 104.966 25L99.8493 28.1335ZM106.028 50.6193C106.028 56.5608 104.952 62.3742 102.788 68.0759L108.397 70.2054C110.814 63.8389 112.028 57.3048 112.028 50.6193H106.028ZM102.782 68.0901C100.684 73.7033 96.951 80.1214 91.4681 87.3589L96.2507 90.982C101.942 83.4695 106.031 76.5344 108.402 70.1911L102.782 68.0901ZM91.466 87.3617C86.0212 94.5664 78.4151 103.422 68.617 113.944L73.008 118.033C82.8766 107.436 90.6351 98.4127 96.2528 90.9792L91.466 87.3617ZM68.6211 113.94L30.07 155.173L34.4528 159.27L73.0039 118.037L68.6211 113.94ZM29.2614 157.222V158.562H35.2614V157.222H29.2614ZM32.2614 161.562H112.045V155.562H32.2614V161.562ZM109.045 158.562V177H115.045V158.562H109.045ZM112.045 174H3.76705V180H112.045V174Z" fill="white" mask="url(#path-1-outside-1_13_239)"/>
</svg>
