<svg width="118" height="177" viewBox="0 0 118 177" fill="none" xmlns="http://www.w3.org/2000/svg">
<mask id="path-1-outside-1_13_239" maskUnits="userSpaceOnUse" x="0" y="0" width="118" height="177" fill="black">
<rect fill="white" width="118" height="177"/>
<path d="M50.9707 75.4707C61.8027 75.4707 70.4069 73.0892 76.7832 68.3262C83.1595 63.4863 86.3477 56.4186 86.3477 47.123C86.3477 40.0553 83.582 34.3704 78.0508 30.0684C72.5195 25.6895 65.0677 23.5 55.6953 23.5C51.4701 23.5 47.3984 23.8457 43.4805 24.5371C39.6393 25.2285 36.528 25.9583 34.1465 26.7266C31.765 27.418 30.2669 27.9173 29.6523 28.2246L27.3477 49.4277H8.44922L7.29688 12.8984C8.67969 12.4375 11.8294 11.4772 16.7461 10.0176C21.7396 8.48112 27.9238 7.02148 35.2988 5.63867C42.7507 4.17904 49.9336 3.44922 56.8477 3.44922C73.6719 3.44922 86.9238 6.79102 96.6035 13.4746C106.283 20.1582 111.123 30.5677 111.123 44.7031C111.123 54.9206 108.549 63.4479 103.402 70.2852C98.332 77.0456 90.6882 81.6549 80.4707 84.1133C90.9954 86.3411 99.3307 90.9505 105.477 97.9414C111.622 104.932 114.695 112.768 114.695 121.449C114.695 133.741 111.584 143.728 105.361 151.41C99.1387 159.092 91.3027 164.662 81.8535 168.119C72.4043 171.576 62.4941 173.305 52.123 173.305C42.9811 173.305 34.8379 172.46 27.6934 170.77C20.5488 169.003 14.7487 167.12 10.293 165.123C5.91406 163.049 3.72461 161.858 3.72461 161.551L10.7539 142.652C10.7539 142.806 13.0202 143.843 17.5527 145.764C22.1621 147.607 27.6165 149.336 33.916 150.949C40.2155 152.486 46.6686 153.254 53.2754 153.254C64.1074 153.254 72.7116 150.604 79.0879 145.303C85.4642 139.925 88.6523 132.358 88.6523 122.602C88.6523 113.767 85.1569 106.853 78.166 101.859C71.1751 96.7891 61.6875 94.2539 49.7031 94.2539H32.0723V75.4707H50.9707Z"/>
</mask>
<path d="M50.9707 75.4707C61.8027 75.4707 70.4069 73.0892 76.7832 68.3262C83.1595 63.4863 86.3477 56.4186 86.3477 47.123C86.3477 40.0553 83.582 34.3704 78.0508 30.0684C72.5195 25.6895 65.0677 23.5 55.6953 23.5C51.4701 23.5 47.3984 23.8457 43.4805 24.5371C39.6393 25.2285 36.528 25.9583 34.1465 26.7266C31.765 27.418 30.2669 27.9173 29.6523 28.2246L27.3477 49.4277H8.44922L7.29688 12.8984C8.67969 12.4375 11.8294 11.4772 16.7461 10.0176C21.7396 8.48112 27.9238 7.02148 35.2988 5.63867C42.7507 4.17904 49.9336 3.44922 56.8477 3.44922C73.6719 3.44922 86.9238 6.79102 96.6035 13.4746C106.283 20.1582 111.123 30.5677 111.123 44.7031C111.123 54.9206 108.549 63.4479 103.402 70.2852C98.332 77.0456 90.6882 81.6549 80.4707 84.1133C90.9954 86.3411 99.3307 90.9505 105.477 97.9414C111.622 104.932 114.695 112.768 114.695 121.449C114.695 133.741 111.584 143.728 105.361 151.41C99.1387 159.092 91.3027 164.662 81.8535 168.119C72.4043 171.576 62.4941 173.305 52.123 173.305C42.9811 173.305 34.8379 172.46 27.6934 170.77C20.5488 169.003 14.7487 167.12 10.293 165.123C5.91406 163.049 3.72461 161.858 3.72461 161.551L10.7539 142.652C10.7539 142.806 13.0202 143.843 17.5527 145.764C22.1621 147.607 27.6165 149.336 33.916 150.949C40.2155 152.486 46.6686 153.254 53.2754 153.254C64.1074 153.254 72.7116 150.604 79.0879 145.303C85.4642 139.925 88.6523 132.358 88.6523 122.602C88.6523 113.767 85.1569 106.853 78.166 101.859C71.1751 96.7891 61.6875 94.2539 49.7031 94.2539H32.0723V75.4707H50.9707Z" fill="black"/>
<path d="M76.7832 68.3262L78.5786 70.7296L78.5878 70.7227L78.597 70.7158L76.7832 68.3262ZM78.0508 30.0684L76.1887 32.4205L76.1988 32.4285L76.209 32.4364L78.0508 30.0684ZM43.4805 24.5371L42.9591 21.5827L42.949 21.5846L43.4805 24.5371ZM34.1465 26.7266L34.9829 29.6076L35.0254 29.5953L35.0675 29.5817L34.1465 26.7266ZM29.6523 28.2246L28.3107 25.5413L26.8468 26.2733L26.6699 27.9004L29.6523 28.2246ZM27.3477 49.4277V52.4277H30.0392L30.3301 49.7519L27.3477 49.4277ZM8.44922 49.4277L5.45071 49.5223L5.54236 52.4277H8.44922V49.4277ZM7.29688 12.8984L6.34819 10.0524L4.2279 10.7592L4.29837 12.993L7.29688 12.8984ZM16.7461 10.0176L17.5999 12.8935L17.6141 12.8893L17.6284 12.8849L16.7461 10.0176ZM35.2988 5.63867L35.8517 8.58729L35.8636 8.58506L35.8755 8.58273L35.2988 5.63867ZM103.402 70.2852L101.006 68.4808L101.002 68.4852L103.402 70.2852ZM80.4707 84.1133L79.7689 81.1965L79.8494 87.0482L80.4707 84.1133ZM27.6934 170.77L26.9731 173.682L26.9879 173.685L27.0027 173.689L27.6934 170.77ZM10.293 165.123L9.00871 167.834L9.03712 167.848L9.0658 167.861L10.293 165.123ZM3.72461 161.551L0.912814 160.505L0.724609 161.011V161.551H3.72461ZM10.7539 142.652H13.7539L7.94211 141.606L10.7539 142.652ZM17.5527 145.764L16.3823 148.526L16.4103 148.538L16.4386 148.549L17.5527 145.764ZM33.916 150.949L33.1717 153.855L33.1884 153.86L33.2051 153.864L33.916 150.949ZM79.0879 145.303L81.0057 147.61L81.0139 147.603L81.022 147.596L79.0879 145.303ZM78.166 101.859L76.4047 104.288L76.4135 104.294L76.4223 104.301L78.166 101.859ZM32.0723 94.2539H29.0723V97.2539H32.0723V94.2539ZM32.0723 75.4707V72.4707H29.0723V75.4707H32.0723ZM50.9707 78.4707C62.2197 78.4707 71.5256 75.9981 78.5786 70.7296L74.9878 65.9227C69.2882 70.1802 61.3858 72.4707 50.9707 72.4707V78.4707ZM78.597 70.7158C85.8473 65.2125 89.3477 57.1854 89.3477 47.123H83.3477C83.3477 55.6518 80.4717 61.7601 74.9694 65.9366L78.597 70.7158ZM89.3477 47.123C89.3477 39.1389 86.162 32.5765 79.8926 27.7003L76.209 32.4364C81.0021 36.1644 83.3477 40.9717 83.3477 47.123H89.3477ZM79.9129 27.7162C73.7003 22.7979 65.5214 20.5 55.6953 20.5V26.5C64.614 26.5 71.3387 28.581 76.1887 32.4205L79.9129 27.7162ZM55.6953 20.5C51.306 20.5 47.0595 20.8592 42.9591 21.5828L44.0018 27.4915C47.7374 26.8322 51.6341 26.5 55.6953 26.5V20.5ZM42.949 21.5846C39.0402 22.2882 35.7843 23.046 33.2255 23.8714L35.0675 29.5817C37.2716 28.8707 40.2385 28.1689 44.0119 27.4897L42.949 21.5846ZM33.3101 23.8455C31.0085 24.5137 29.2196 25.0869 28.3107 25.5413L30.994 30.9079C31.3142 30.7478 32.5215 30.3222 34.9829 29.6076L33.3101 23.8455ZM26.6699 27.9004L24.3652 49.1036L30.3301 49.7519L32.6348 28.5488L26.6699 27.9004ZM27.3477 46.4277H8.44922V52.4277H27.3477V46.4277ZM11.4477 49.3331L10.2954 12.8038L4.29837 12.993L5.45071 49.5223L11.4477 49.3331ZM8.24556 15.7445C9.57161 15.3025 12.6697 14.3572 17.5999 12.8935L15.8923 7.14164C10.9892 8.59726 7.78777 9.57253 6.34819 10.0524L8.24556 15.7445ZM17.6284 12.8849C22.4783 11.3926 28.5444 9.9574 35.8517 8.58729L34.746 2.69006C27.3032 4.08557 21.0009 5.56962 15.8638 7.15024L17.6284 12.8849ZM35.8755 8.58273C43.1557 7.15671 50.145 6.44922 56.8477 6.44922V0.449219C49.7222 0.449219 42.3456 1.20136 34.7222 2.69462L35.8755 8.58273ZM56.8477 6.44922C73.3142 6.44922 85.8935 9.72527 94.8989 15.9433L98.3081 11.0059C87.9541 3.85676 74.0295 0.449219 56.8477 0.449219V6.44922ZM94.8989 15.9433C103.597 21.9492 108.123 31.3266 108.123 44.7031H114.123C114.123 29.8088 108.969 18.3672 98.3081 11.0059L94.8989 15.9433ZM108.123 44.7031C108.123 54.3997 105.69 62.2588 101.006 68.4809L105.799 72.0895C111.409 64.637 114.123 55.4415 114.123 44.7031H108.123ZM101.002 68.4852C96.4451 74.5614 89.4778 78.8605 79.7689 81.1965L81.1725 87.03C91.8985 84.4494 100.219 79.5297 105.802 72.0852L101.002 68.4852ZM79.8494 87.0482C89.844 89.1639 97.5688 93.49 103.223 99.9222L107.73 95.9606C101.093 88.411 92.1468 83.5184 81.092 81.1783L79.8494 87.0482ZM103.223 99.9222C108.926 106.408 111.695 113.553 111.695 121.449H117.695C117.695 111.984 114.319 103.456 107.73 95.9606L103.223 99.9222ZM111.695 121.449C111.695 133.225 108.723 142.494 103.03 149.522L107.693 153.298C114.445 144.962 117.695 134.257 117.695 121.449H111.695ZM103.03 149.522C97.1553 156.775 89.772 162.028 80.8228 165.302L82.8843 170.937C92.8335 167.297 101.122 161.41 107.693 153.298L103.03 149.522ZM80.8228 165.302C71.7139 168.634 62.1535 170.305 52.123 170.305V176.305C62.8348 176.305 73.0947 174.518 82.8843 170.937L80.8228 165.302ZM52.123 170.305C43.1596 170.305 35.255 169.476 28.384 167.85L27.0027 173.689C34.4208 175.444 42.8027 176.305 52.123 176.305V170.305ZM28.4136 167.857C21.365 166.114 15.7527 164.283 11.5201 162.386L9.0658 167.861C13.7447 169.958 19.7327 171.891 26.9731 173.682L28.4136 167.857ZM11.5772 162.412C9.40064 161.381 7.81938 160.593 6.80002 160.039C6.27907 159.756 5.9751 159.571 5.82918 159.471C5.74507 159.413 5.80135 159.443 5.91035 159.549C5.96269 159.599 6.10834 159.744 6.25965 159.975C6.38121 160.16 6.72461 160.725 6.72461 161.551H0.724609C0.724609 162.415 1.08512 163.025 1.24088 163.263C1.4264 163.546 1.62337 163.75 1.74413 163.866C1.98997 164.103 2.25151 164.293 2.44108 164.423C2.84252 164.697 3.35961 164.998 3.93338 165.31C5.10347 165.946 6.80639 166.791 9.00871 167.834L11.5772 162.412ZM6.53641 162.597L13.5657 143.698L7.94211 141.606L0.912814 160.505L6.53641 162.597ZM7.75391 142.652C7.75391 143.531 8.13236 144.139 8.27764 144.353C8.45629 144.617 8.63894 144.797 8.73483 144.886C8.93198 145.07 9.11844 145.196 9.20584 145.254C9.40389 145.385 9.61594 145.501 9.78345 145.589C10.1412 145.777 10.6261 146.008 11.2052 146.273C12.3783 146.81 14.1098 147.563 16.3823 148.526L18.7232 143.001C16.4631 142.044 14.7952 141.318 13.702 140.817C13.148 140.564 12.7831 140.387 12.5742 140.277C12.4584 140.217 12.458 140.211 12.5144 140.249C12.531 140.26 12.6644 140.346 12.8261 140.497C12.9043 140.57 13.0737 140.735 13.2434 140.986C13.3799 141.187 13.7539 141.783 13.7539 142.652H7.75391ZM16.4386 148.549C21.1988 150.453 26.7826 152.219 33.1717 153.855L34.6603 148.043C28.4505 146.453 23.1255 144.762 18.6669 142.978L16.4386 148.549ZM33.2051 153.864C39.7417 155.458 46.4337 156.254 53.2754 156.254V150.254C46.9036 150.254 40.6893 149.513 34.6269 148.035L33.2051 153.864ZM53.2754 156.254C64.5906 156.254 73.9443 153.48 81.0057 147.61L77.1701 142.996C71.4789 147.727 63.6243 150.254 53.2754 150.254V156.254ZM81.022 147.596C88.1919 141.549 91.6523 133.076 91.6523 122.602H85.6523C85.6523 131.64 82.7365 138.301 77.1538 143.009L81.022 147.596ZM91.6523 122.602C91.6523 112.831 87.7151 104.993 79.9097 99.4182L76.4223 104.301C82.5987 108.712 85.6523 114.703 85.6523 122.602H91.6523ZM79.9274 99.4309C72.2597 93.8697 62.081 91.2539 49.7031 91.2539V97.2539C61.294 97.2539 70.0905 99.7084 76.4047 104.288L79.9274 99.4309ZM49.7031 91.2539H32.0723V97.2539H49.7031V91.2539ZM35.0723 94.2539V75.4707H29.0723V94.2539H35.0723ZM32.0723 78.4707H50.9707V72.4707H32.0723V78.4707Z" fill="white" mask="url(#path-1-outside-1_13_239)"/>
</svg>
