<svg width="137" height="175" viewBox="0 0 137 175" fill="none" xmlns="http://www.w3.org/2000/svg">
<mask id="path-1-outside-1_13_239" maskUnits="userSpaceOnUse" x="0" y="0" width="137" height="175" fill="black">
<rect fill="white" width="137" height="175"/>
<path d="M106.398 113H133.479V133.051H106.398V172H82.084V133.051H6.0293L3.72461 115.305L79.2031 3.29688L106.398 6.75391V113ZM82.084 35.1016L29.6523 113H82.084V35.1016Z"/>
</mask>
<path d="M106.398 113H133.479V133.051H106.398V172H82.084V133.051H6.0293L3.72461 115.305L79.2031 3.29688L106.398 6.75391V113ZM82.084 35.1016L29.6523 113H82.084V35.1016Z" fill="black"/>
<path d="M106.398 113H103.398V116H106.398V113ZM133.479 113H136.479V110H133.479V113ZM133.479 133.051V136.051H136.479V133.051H133.479ZM106.398 133.051V130.051H103.398V133.051H106.398ZM106.398 172V175H109.398V172H106.398ZM82.084 172H79.084V175H82.084V172ZM82.084 133.051H85.084V130.051H82.084V133.051ZM6.0293 133.051L3.05428 133.437L3.39371 136.051H6.0293V133.051ZM3.72461 115.305L1.23676 113.628L0.603696 114.568L0.749593 115.691L3.72461 115.305ZM79.2031 3.29688L79.5814 0.320824L77.7481 0.0877676L76.7153 1.62039L79.2031 3.29688ZM106.398 6.75391H109.398V4.11112L106.777 3.77786L106.398 6.75391ZM82.084 35.1016H85.084V25.2717L79.5952 33.4264L82.084 35.1016ZM29.6523 113L27.1636 111.325L24.0169 116H29.6523V113ZM82.084 113V116H85.084V113H82.084ZM106.398 116H133.479V110H106.398V116ZM130.479 113V133.051H136.479V113H130.479ZM133.479 130.051H106.398V136.051H133.479V130.051ZM103.398 133.051V172H109.398V133.051H103.398ZM106.398 169H82.084V175H106.398V169ZM85.084 172V133.051H79.084V172H85.084ZM82.084 130.051H6.0293V136.051H82.084V130.051ZM9.00431 132.664L6.69963 114.918L0.749593 115.691L3.05428 133.437L9.00431 132.664ZM6.21246 116.981L81.691 4.97336L76.7153 1.62039L1.23676 113.628L6.21246 116.981ZM78.8248 6.27293L106.02 9.72996L106.777 3.77786L79.5814 0.320824L78.8248 6.27293ZM103.398 6.75391V113H109.398V6.75391H103.398ZM79.5952 33.4264L27.1636 111.325L32.1411 114.675L84.5727 36.7767L79.5952 33.4264ZM29.6523 116H82.084V110H29.6523V116ZM85.084 113V35.1016H79.084V113H85.084Z" fill="white" mask="url(#path-1-outside-1_13_239)"/>
</svg>
