<svg width="116" height="175" viewBox="0 0 116 175" fill="none" xmlns="http://www.w3.org/2000/svg">
<mask id="path-1-outside-1_13_239" maskUnits="userSpaceOnUse" x="0" y="0" width="116" height="175" fill="black">
<rect fill="white" width="116" height="175"/>
<path d="M36.3359 68.7461H43.8262C57.9616 68.7461 70.1764 70.8203 80.4707 74.9688C90.8418 79.1172 98.7161 84.9557 104.094 92.4844C109.548 99.9362 112.275 108.54 112.275 118.297C112.275 129.436 109.433 139.039 103.748 147.105C98.14 155.095 90.8034 161.126 81.7383 165.197C72.6732 169.269 63.1855 171.305 53.2754 171.305C44.1335 171.305 35.9134 170.46 28.6152 168.77C21.3171 167.003 15.3249 165.12 10.6387 163.123C6.0293 161.049 3.72461 159.858 3.72461 159.551L10.7539 140.652C10.7539 140.806 12.9049 141.843 17.207 143.764C21.5859 145.607 26.8483 147.336 32.9941 148.949C39.14 150.486 45.5163 151.254 52.123 151.254C61.5723 151.254 69.6387 148.488 76.3223 142.957C83.0059 137.349 86.3477 129.513 86.3477 119.449C86.3477 109.078 82.0456 101.165 73.4414 95.7109C64.9141 90.2565 53.0833 87.5293 37.9492 87.5293H13.1738L16.2852 3.75391H105.707L105.016 23.8047H38.4102L36.3359 68.7461Z"/>
</mask>
<path d="M36.3359 68.7461H43.8262C57.9616 68.7461 70.1764 70.8203 80.4707 74.9688C90.8418 79.1172 98.7161 84.9557 104.094 92.4844C109.548 99.9362 112.275 108.54 112.275 118.297C112.275 129.436 109.433 139.039 103.748 147.105C98.14 155.095 90.8034 161.126 81.7383 165.197C72.6732 169.269 63.1855 171.305 53.2754 171.305C44.1335 171.305 35.9134 170.46 28.6152 168.77C21.3171 167.003 15.3249 165.12 10.6387 163.123C6.0293 161.049 3.72461 159.858 3.72461 159.551L10.7539 140.652C10.7539 140.806 12.9049 141.843 17.207 143.764C21.5859 145.607 26.8483 147.336 32.9941 148.949C39.14 150.486 45.5163 151.254 52.123 151.254C61.5723 151.254 69.6387 148.488 76.3223 142.957C83.0059 137.349 86.3477 129.513 86.3477 119.449C86.3477 109.078 82.0456 101.165 73.4414 95.7109C64.9141 90.2565 53.0833 87.5293 37.9492 87.5293H13.1738L16.2852 3.75391H105.707L105.016 23.8047H38.4102L36.3359 68.7461Z" fill="black"/>
<path d="M36.3359 68.7461L33.3391 68.6078L33.1943 71.7461H36.3359V68.7461ZM80.4707 74.9688L79.3494 77.7513L79.3565 77.7542L80.4707 74.9688ZM104.094 92.4844L101.653 94.2281L101.663 94.2423L101.673 94.2563L104.094 92.4844ZM103.748 147.105L101.296 145.377L101.293 145.382L103.748 147.105ZM28.6152 168.77L27.9093 171.685L27.9238 171.689L27.9384 171.692L28.6152 168.77ZM10.6387 163.123L9.40758 165.859L9.43486 165.871L9.46238 165.883L10.6387 163.123ZM3.72461 159.551L0.912814 158.505L0.724609 159.011V159.551H3.72461ZM10.7539 140.652H13.7539L7.94211 139.606L10.7539 140.652ZM17.207 143.764L15.9841 146.503L16.0133 146.516L16.0429 146.529L17.207 143.764ZM32.9941 148.949L32.2324 151.851L32.2495 151.855L32.2665 151.86L32.9941 148.949ZM76.3223 142.957L78.235 145.268L78.2428 145.262L78.2506 145.255L76.3223 142.957ZM73.4414 95.7109L71.8249 98.2382L71.8352 98.2447L73.4414 95.7109ZM13.1738 87.5293L10.1759 87.418L10.0603 90.5293H13.1738V87.5293ZM16.2852 3.75391V0.753906H13.3945L13.2872 3.64257L16.2852 3.75391ZM105.707 3.75391L108.705 3.85729L108.812 0.753906H105.707V3.75391ZM105.016 23.8047V26.8047H107.914L108.014 23.9081L105.016 23.8047ZM38.4102 23.8047V20.8047H35.5454L35.4133 23.6664L38.4102 23.8047ZM36.3359 71.7461H43.8262V65.7461H36.3359V71.7461ZM43.8262 71.7461C57.6781 71.7461 69.4944 73.7799 79.3494 77.7513L81.592 72.1862C70.8585 67.8607 58.2451 65.7461 43.8262 65.7461V71.7461ZM79.3565 77.7542C89.3062 81.734 96.6721 87.2554 101.653 94.2281L106.535 90.7407C100.76 82.6561 92.3774 76.5003 81.5849 72.1833L79.3565 77.7542ZM101.673 94.2563C106.729 101.164 109.275 109.139 109.275 118.297H115.275C115.275 107.942 112.367 98.7085 106.515 90.7124L101.673 94.2563ZM109.275 118.297C109.275 128.9 106.579 137.88 101.296 145.377L106.2 148.834C112.287 140.198 115.275 129.972 115.275 118.297H109.275ZM101.293 145.382C96.0005 152.921 89.0911 158.606 80.5091 162.461L82.9674 167.934C92.5157 163.645 100.279 157.269 106.204 148.829L101.293 145.382ZM80.5091 162.461C71.8294 166.359 62.7606 168.305 53.2754 168.305V174.305C63.6105 174.305 73.5169 172.179 82.9674 167.934L80.5091 162.461ZM53.2754 168.305C44.3134 168.305 36.326 167.476 29.2921 165.847L27.9384 171.692C35.5008 173.443 43.9536 174.305 53.2754 174.305V168.305ZM29.3212 165.854C22.1159 164.109 16.2959 162.273 11.815 160.363L9.46238 165.883C14.3538 167.968 20.5182 169.896 27.9093 171.685L29.3212 165.854ZM11.8698 160.387C9.57754 159.356 7.90858 158.566 6.83019 158.009C6.27961 157.725 5.95288 157.536 5.7917 157.432C5.69926 157.371 5.75151 157.397 5.85982 157.496C5.91101 157.543 6.06224 157.685 6.22126 157.916C6.34498 158.095 6.72461 158.681 6.72461 159.551H0.724609C0.724609 160.459 1.12224 161.09 1.28198 161.322C1.477 161.605 1.68225 161.806 1.80547 161.919C2.05782 162.15 2.32613 162.335 2.52177 162.462C2.93677 162.732 3.47429 163.029 4.07606 163.34C5.30235 163.973 7.09043 164.816 9.40758 165.859L11.8698 160.387ZM6.53641 160.597L13.5657 141.698L7.94211 139.606L0.912814 158.505L6.53641 160.597ZM7.75391 140.652C7.75391 141.487 8.09608 142.073 8.23762 142.293C8.40722 142.557 8.58236 142.739 8.67699 142.832C8.87005 143.021 9.05357 143.153 9.14026 143.213C9.33543 143.349 9.54315 143.469 9.70428 143.558C10.049 143.749 10.5135 143.982 11.0643 144.248C12.1808 144.786 13.8266 145.54 15.9841 146.503L18.43 141.024C16.2853 140.067 14.7047 139.342 13.6701 138.843C13.1453 138.59 12.8032 138.415 12.6102 138.309C12.5024 138.249 12.5085 138.247 12.5692 138.29C12.5887 138.303 12.7218 138.395 12.8812 138.551C12.9591 138.628 13.1216 138.795 13.2828 139.046C13.4159 139.252 13.7539 139.827 13.7539 140.652H7.75391ZM16.0429 146.529C20.5877 148.442 25.992 150.213 32.2324 151.851L33.7558 146.048C27.7046 144.459 22.5842 142.773 18.3712 140.999L16.0429 146.529ZM32.2665 151.86C38.6603 153.458 45.2815 154.254 52.123 154.254V148.254C45.751 148.254 39.6196 147.513 33.7217 146.039L32.2665 151.86ZM52.123 154.254C62.2038 154.254 70.9641 151.285 78.235 145.268L74.4096 140.646C68.3132 145.691 60.9407 148.254 52.123 148.254V154.254ZM78.2506 145.255C85.7218 138.986 89.3477 130.248 89.3477 119.449H83.3477C83.3477 128.778 80.2899 135.712 74.3939 140.659L78.2506 145.255ZM89.3477 119.449C89.3477 108.073 84.5385 99.1937 75.0476 93.1772L71.8352 98.2447C79.5526 103.137 83.3477 110.083 83.3477 119.449H89.3477ZM75.0579 93.1837C65.8647 87.3034 53.3909 84.5293 37.9492 84.5293V90.5293C52.7758 90.5293 63.9634 93.2097 71.8249 98.2382L75.0579 93.1837ZM37.9492 84.5293H13.1738V90.5293H37.9492V84.5293ZM16.1718 87.6406L19.2831 3.86525L13.2872 3.64257L10.1759 87.418L16.1718 87.6406ZM16.2852 6.75391H105.707V0.753906H16.2852V6.75391ZM102.709 3.65052L102.017 23.7013L108.014 23.9081L108.705 3.85729L102.709 3.65052ZM105.016 20.8047H38.4102V26.8047H105.016V20.8047ZM35.4133 23.6664L33.3391 68.6078L39.3327 68.8844L41.407 23.943L35.4133 23.6664Z" fill="white" mask="url(#path-1-outside-1_13_239)"/>
</svg>
