<svg width="124" height="177" viewBox="0 0 124 177" fill="none" xmlns="http://www.w3.org/2000/svg">
<mask id="path-1-outside-1_13_239" maskUnits="userSpaceOnUse" x="0" y="0" width="124" height="177" fill="black">
<rect fill="white" width="124" height="177"/>
<path d="M105.848 24.6523C105.079 24.4987 103.044 24.2682 99.7402 23.9609C96.4368 23.6536 92.5573 23.5 88.1016 23.5C71.7383 23.5 59.1393 27.8021 50.3047 36.4062C41.5469 44.9336 35.8236 53.6914 33.1348 62.6797C30.446 71.668 29.1016 77.8906 29.1016 81.3477C29.1016 81.194 31.0605 80.0417 34.9785 77.8906C38.9733 75.7396 43.9284 73.819 49.8438 72.1289C55.8359 70.362 62.2891 69.4785 69.2031 69.4785C78.4987 69.4785 86.9876 71.4759 94.6699 75.4707C102.429 79.3887 108.575 85.0736 113.107 92.5254C117.717 99.9772 120.021 108.812 120.021 119.029C120.021 129.708 117.448 139.195 112.301 147.492C107.23 155.789 100.355 162.165 91.6738 166.621C82.9928 171.077 73.5436 173.305 63.3262 173.305C43.5059 173.305 28.5254 166.736 18.3848 153.6C8.24414 140.463 3.17383 123.062 3.17383 101.398C3.17383 82.1927 6.40039 65.2533 12.8535 50.5801C19.3066 35.8301 28.9863 24.3066 41.8926 16.0098C54.7988 7.63607 70.5859 3.44922 89.2539 3.44922C94.0938 3.44922 98.2422 3.79492 101.699 4.48633C105.233 5.17773 107 5.60026 107 5.75391L105.848 24.6523ZM27.9492 107.275C27.9492 122.87 31.291 134.432 37.9746 141.961C44.6582 149.49 53.1087 153.254 63.3262 153.254C72.929 153.254 80.6497 150.45 86.4883 144.842C92.3268 139.157 95.2461 131.359 95.2461 121.449C95.2461 110.924 92.4036 102.973 86.7188 97.5957C81.0339 92.2181 72.8522 89.5293 62.1738 89.5293C56.4889 89.5293 51.1113 90.3359 46.041 91.9492C41.0475 93.4857 36.7839 95.2142 33.25 97.1348C29.7161 99.0553 27.9492 100.092 27.9492 100.246V107.275Z"/>
</mask>
<path d="M105.848 24.6523C105.079 24.4987 103.044 24.2682 99.7402 23.9609C96.4368 23.6536 92.5573 23.5 88.1016 23.5C71.7383 23.5 59.1393 27.8021 50.3047 36.4062C41.5469 44.9336 35.8236 53.6914 33.1348 62.6797C30.446 71.668 29.1016 77.8906 29.1016 81.3477C29.1016 81.194 31.0605 80.0417 34.9785 77.8906C38.9733 75.7396 43.9284 73.819 49.8438 72.1289C55.8359 70.362 62.2891 69.4785 69.2031 69.4785C78.4987 69.4785 86.9876 71.4759 94.6699 75.4707C102.429 79.3887 108.575 85.0736 113.107 92.5254C117.717 99.9772 120.021 108.812 120.021 119.029C120.021 129.708 117.448 139.195 112.301 147.492C107.23 155.789 100.355 162.165 91.6738 166.621C82.9928 171.077 73.5436 173.305 63.3262 173.305C43.5059 173.305 28.5254 166.736 18.3848 153.6C8.24414 140.463 3.17383 123.062 3.17383 101.398C3.17383 82.1927 6.40039 65.2533 12.8535 50.5801C19.3066 35.8301 28.9863 24.3066 41.8926 16.0098C54.7988 7.63607 70.5859 3.44922 89.2539 3.44922C94.0938 3.44922 98.2422 3.79492 101.699 4.48633C105.233 5.17773 107 5.60026 107 5.75391L105.848 24.6523ZM27.9492 107.275C27.9492 122.87 31.291 134.432 37.9746 141.961C44.6582 149.49 53.1087 153.254 63.3262 153.254C72.929 153.254 80.6497 150.45 86.4883 144.842C92.3268 139.157 95.2461 131.359 95.2461 121.449C95.2461 110.924 92.4036 102.973 86.7188 97.5957C81.0339 92.2181 72.8522 89.5293 62.1738 89.5293C56.4889 89.5293 51.1113 90.3359 46.041 91.9492C41.0475 93.4857 36.7839 95.2142 33.25 97.1348C29.7161 99.0553 27.9492 100.092 27.9492 100.246V107.275Z" fill="black"/>
<path d="M105.848 24.6523L105.259 27.5941L108.633 28.2688L108.842 24.8349L105.848 24.6523ZM50.3047 36.4062L52.3975 38.5557L52.3978 38.5554L50.3047 36.4062ZM34.9785 77.8906L33.5562 75.2492L33.5455 75.255L33.5347 75.2609L34.9785 77.8906ZM49.8438 72.1289L50.6679 75.0135L50.6801 75.01L50.6922 75.0064L49.8438 72.1289ZM94.6699 75.4707L93.2859 78.1324L93.3017 78.1406L93.3177 78.1487L94.6699 75.4707ZM113.107 92.5254L110.544 94.0844L110.55 94.094L110.556 94.1035L113.107 92.5254ZM112.301 147.492L109.751 145.911L109.746 145.919L109.741 145.928L112.301 147.492ZM12.8535 50.5801L15.5997 51.7878L15.602 51.7825L12.8535 50.5801ZM41.8926 16.0098L43.5149 18.5333L43.5254 18.5265L41.8926 16.0098ZM101.699 4.48633L101.111 7.4281L101.123 7.43051L101.699 4.48633ZM107 5.75391L109.994 5.93649L110 5.84528V5.75391H107ZM86.4883 144.842L88.5665 147.005L88.5738 146.998L88.5811 146.991L86.4883 144.842ZM46.041 91.9492L46.9233 94.8166L46.937 94.8123L46.9506 94.808L46.041 91.9492ZM106.436 21.7106C105.477 21.5189 103.257 21.2751 100.018 20.9738L99.4624 26.948C102.83 27.2613 104.682 27.4785 105.259 27.5941L106.436 21.7106ZM100.018 20.9738C96.5972 20.6556 92.6209 20.5 88.1016 20.5V26.5C92.4937 26.5 96.2765 26.6517 99.4624 26.948L100.018 20.9738ZM88.1016 20.5C71.2198 20.5 57.7704 24.9477 48.2116 34.2571L52.3978 38.5554C60.5083 30.6565 72.2568 26.5 88.1016 26.5V20.5ZM48.2118 34.2568C39.1957 43.0357 33.1336 52.216 30.2606 61.8199L36.0089 63.5395C38.5136 55.1668 43.898 46.8315 52.3975 38.5557L48.2118 34.2568ZM30.2606 61.8199C27.5844 70.766 26.1016 77.3898 26.1016 81.3477H32.1016C32.1016 78.3915 33.3075 72.57 36.0089 63.5395L30.2606 61.8199ZM32.1016 81.3477C32.1016 82.0875 31.8278 82.6144 31.7174 82.8094C31.5832 83.0461 31.4462 83.21 31.3774 83.2882C31.238 83.4467 31.12 83.5429 31.1005 83.559C31.044 83.6055 31.0366 83.6056 31.133 83.5413C31.306 83.426 31.6149 83.2345 32.0919 82.954C33.0319 82.401 34.4696 81.5924 36.4223 80.5204L33.5347 75.2609C31.5695 76.3399 30.0687 77.183 29.0497 77.7824C28.5472 78.078 28.1215 78.3379 27.8048 78.549C27.6563 78.648 27.4652 78.7801 27.2863 78.9274C27.2055 78.9939 27.0416 79.1328 26.8716 79.3261C26.7876 79.4217 26.639 79.601 26.4972 79.8513C26.3791 80.0597 26.1016 80.5982 26.1016 81.3477H32.1016ZM36.4008 80.532C40.152 78.5122 44.8921 76.6637 50.6679 75.0135L49.0196 69.2443C42.9647 70.9743 37.7946 72.967 33.5562 75.2492L36.4008 80.532ZM50.6922 75.0064C56.3813 73.3289 62.546 72.4785 69.2031 72.4785V66.4785C62.0321 66.4785 55.2906 67.3951 48.9953 69.2514L50.6922 75.0064ZM69.2031 72.4785C78.0532 72.4785 86.0622 74.376 93.2859 78.1324L96.054 72.8091C87.9131 68.5758 78.9442 66.4785 69.2031 66.4785V72.4785ZM93.3177 78.1487C100.575 81.8131 106.302 87.1096 110.544 94.0844L115.671 90.9664C110.848 83.0376 104.283 76.9642 96.0222 72.7927L93.3177 78.1487ZM110.556 94.1035C114.826 101.007 117.021 109.275 117.021 119.029H123.021C123.021 108.348 120.607 98.9473 115.659 90.9472L110.556 94.1035ZM117.021 119.029C117.021 129.203 114.577 138.133 109.751 145.911L114.85 149.074C120.319 140.258 123.021 130.212 123.021 119.029H117.021ZM109.741 145.928C104.959 153.752 98.4961 159.747 90.3039 163.952L93.0437 169.29C102.214 164.583 109.502 157.826 114.861 149.057L109.741 145.928ZM90.3039 163.952C82.0669 168.18 73.0903 170.305 63.3262 170.305V176.305C73.9969 176.305 83.9188 173.974 93.0437 169.29L90.3039 163.952ZM63.3262 170.305C44.2332 170.305 30.219 164.021 20.7595 151.766L16.01 155.433C26.8318 169.452 42.7786 176.305 63.3262 176.305V170.305ZM20.7595 151.766C11.1331 139.296 6.17383 122.603 6.17383 101.398H0.173828C0.173828 123.522 5.35516 141.63 16.01 155.433L20.7595 151.766ZM6.17383 101.398C6.17383 82.5276 9.34371 66.0127 15.5997 51.7878L10.1074 49.3723C3.45707 64.4938 0.173828 81.8578 0.173828 101.398H6.17383ZM15.602 51.7825C21.8304 37.5461 31.1313 26.4942 43.5149 18.5333L40.2703 13.4862C26.8414 22.1191 16.7828 34.1141 10.105 49.3776L15.602 51.7825ZM43.5254 18.5265C55.8505 10.5299 71.0407 6.44922 89.2539 6.44922V0.449219C70.1311 0.449219 53.7472 4.74228 40.2597 13.4931L43.5254 18.5265ZM89.2539 6.44922C93.9636 6.44922 97.9041 6.78671 101.111 7.42807L102.288 1.54459C98.5803 0.803136 94.2239 0.449219 89.2539 0.449219V6.44922ZM101.123 7.43051C102.881 7.77435 104.156 8.04322 104.977 8.23951C105.399 8.3405 105.636 8.40692 105.739 8.44045C105.808 8.46302 105.722 8.44032 105.576 8.36697C105.516 8.3374 105.292 8.22472 105.039 8.01022C104.909 7.90001 104.685 7.69073 104.477 7.36994C104.265 7.04271 104 6.48695 104 5.75391H110C110 4.33749 109.06 3.55329 108.919 3.43368C108.639 3.19576 108.373 3.05758 108.259 3.0004C108.002 2.87183 107.75 2.78551 107.599 2.73607C107.26 2.62555 106.834 2.51432 106.373 2.40404C105.426 2.17781 104.052 1.88971 102.275 1.54215L101.123 7.43051ZM104.006 5.57132L102.853 24.4698L108.842 24.8349L109.994 5.93649L104.006 5.57132ZM24.9492 107.275C24.9492 123.218 28.3534 135.642 35.7311 143.953L40.2181 139.969C34.2286 133.222 30.9492 122.523 30.9492 107.275H24.9492ZM35.7311 143.953C42.9937 152.133 52.2658 156.254 63.3262 156.254V150.254C53.9517 150.254 46.3227 146.846 40.2181 139.969L35.7311 143.953ZM63.3262 156.254C73.5498 156.254 82.0672 153.248 88.5665 147.005L84.4101 142.678C79.2323 147.652 72.3083 150.254 63.3262 150.254V156.254ZM88.5811 146.991C95.1214 140.623 98.2461 131.982 98.2461 121.449H92.2461C92.2461 130.737 89.5323 137.691 84.3954 142.692L88.5811 146.991ZM98.2461 121.449C98.2461 110.395 95.2496 101.536 88.7803 95.4163L84.6572 99.7751C89.5577 104.411 92.2461 111.454 92.2461 121.449H98.2461ZM88.7803 95.4163C82.3616 89.3445 73.335 86.5293 62.1738 86.5293V92.5293C72.3694 92.5293 79.7062 95.0917 84.6572 99.7751L88.7803 95.4163ZM62.1738 86.5293C56.2014 86.5293 50.5153 87.3774 45.1314 89.0904L46.9506 94.808C51.7073 93.2945 56.7765 92.5293 62.1738 92.5293V86.5293ZM45.1588 89.0819C40.0278 90.6606 35.5695 92.4597 31.8175 94.4989L34.6825 99.7706C37.9982 97.9687 42.0672 96.3107 46.9233 94.8166L45.1588 89.0819ZM31.8175 94.4989C30.0435 95.463 28.6832 96.2215 27.7558 96.7658C27.2997 97.0335 26.9039 97.2753 26.604 97.4774C26.4643 97.5715 26.2738 97.7047 26.092 97.8588C26.0091 97.9291 25.8413 98.0759 25.6687 98.2823C25.5822 98.3857 25.4375 98.5711 25.3023 98.8268C25.1822 99.054 24.9492 99.5591 24.9492 100.246H30.9492C30.9492 100.924 30.7197 101.417 30.6065 101.631C30.4782 101.874 30.3439 102.045 30.2712 102.132C30.1262 102.305 29.9998 102.412 29.9721 102.435C29.9007 102.496 29.8759 102.508 29.9571 102.453C30.0989 102.357 30.3657 102.191 30.793 101.94C31.6326 101.447 32.9227 100.727 34.6825 99.7706L31.8175 94.4989ZM24.9492 100.246V107.275H30.9492V100.246H24.9492Z" fill="white" mask="url(#path-1-outside-1_13_239)"/>
</svg>
