<svg width="120" height="172" viewBox="0 0 120 172" fill="none" xmlns="http://www.w3.org/2000/svg">
<mask id="path-1-outside-1_13_239" maskUnits="userSpaceOnUse" x="0" y="0" width="120" height="172" fill="black">
<rect fill="white" width="120" height="172"/>
<path d="M53.3945 169H26.3145L88.8867 25.0723H25.623L20.8984 47.4277H3.15234V3.75391H116.428V21.5L53.3945 169Z"/>
</mask>
<path d="M53.3945 169H26.3145L88.8867 25.0723H25.623L20.8984 47.4277H3.15234V3.75391H116.428V21.5L53.3945 169Z" fill="black"/>
<path d="M53.3945 169V172H55.375L56.1532 170.179L53.3945 169ZM26.3145 169L23.5632 167.804L21.739 172H26.3145V169ZM88.8867 25.0723L91.638 26.2684L93.4622 22.0723H88.8867V25.0723ZM25.623 25.0723V22.0723H23.1908L22.6879 24.4519L25.623 25.0723ZM20.8984 47.4277V50.4277H23.3307L23.8336 48.0481L20.8984 47.4277ZM3.15234 47.4277H0.152344V50.4277H3.15234V47.4277ZM3.15234 3.75391V0.753906H0.152344V3.75391H3.15234ZM116.428 3.75391H119.428V0.753906H116.428V3.75391ZM116.428 21.5L119.186 22.6789L119.428 22.1142V21.5H116.428ZM53.3945 166H26.3145V172H53.3945V166ZM29.0657 170.196L91.638 26.2684L86.1355 23.8762L23.5632 167.804L29.0657 170.196ZM88.8867 22.0723H25.623V28.0723H88.8867V22.0723ZM22.6879 24.4519L17.9633 46.8074L23.8336 48.0481L28.5582 25.6926L22.6879 24.4519ZM20.8984 44.4277H3.15234V50.4277H20.8984V44.4277ZM6.15234 47.4277V3.75391H0.152344V47.4277H6.15234ZM3.15234 6.75391H116.428V0.753906H3.15234V6.75391ZM113.428 3.75391V21.5H119.428V3.75391H113.428ZM113.669 20.3211L50.6359 167.821L56.1532 170.179L119.186 22.6789L113.669 20.3211Z" fill="white" mask="url(#path-1-outside-1_13_239)"/>
</svg>
