<svg width="123" height="177" viewBox="0 0 123 177" fill="none" xmlns="http://www.w3.org/2000/svg">
<mask id="path-1-outside-1_13_239" maskUnits="userSpaceOnUse" x="0" y="0" width="123" height="177" fill="black">
<rect fill="white" width="123" height="177"/>
<path d="M117.029 45.9707C117.029 56.1882 113.764 64.3314 107.234 70.4004C100.704 76.3926 93.8288 80.7331 86.6074 83.4219C96.8249 87.6471 104.853 92.8711 110.691 99.0938C116.53 105.316 119.449 113.536 119.449 123.754C119.449 133.203 117.029 141.73 112.189 149.336C107.426 156.865 100.474 162.742 91.332 166.967C82.1901 171.192 71.5117 173.305 59.2969 173.305C41.5508 173.305 27.8379 168.964 18.1582 160.283C8.55534 151.525 3.75391 140.156 3.75391 126.174C3.75391 115.035 7.36458 106.085 14.5859 99.3242C21.8841 92.487 29.1439 87.4935 36.3652 84.3438C27.5306 79.9648 20.6549 74.9714 15.7383 69.3633C10.8984 63.6784 8.47852 56.265 8.47852 47.123C8.47852 32.834 13.5104 22.002 23.5742 14.627C33.7148 7.17513 47.5814 3.44922 65.1738 3.44922C81.8444 3.44922 94.6354 7.36719 103.547 15.2031C112.535 22.9622 117.029 33.2181 117.029 45.9707ZM33.2539 47.123C33.2539 52.4238 34.752 56.918 37.748 60.6055C40.7441 64.2161 44.5085 67.1354 49.041 69.3633C53.6504 71.5143 59.6426 73.9342 67.0176 76.623C73.0098 74.3952 78.6947 70.8613 84.0723 66.0215C89.5267 61.1048 92.2539 54.8053 92.2539 47.123C92.2539 39.9017 89.6419 34.1784 84.418 29.9531C79.2708 25.651 72.0495 23.5 62.7539 23.5C53.4583 23.5 46.1986 25.651 40.9746 29.9531C35.8275 34.1784 33.2539 39.9017 33.2539 47.123ZM93.5215 125.021C93.5215 119.49 91.9082 114.804 88.6816 110.963C85.4551 107.122 81.4219 103.972 76.582 101.514C71.819 99.0553 65.2507 96.1745 56.877 92.8711C50.1165 96.0208 43.8939 100.054 38.209 104.971C32.6009 109.811 29.7969 116.494 29.7969 125.021C29.7969 133.856 32.5625 140.732 38.0938 145.648C43.7018 150.565 51.5378 153.023 61.6016 153.023C71.6654 153.023 79.5013 150.565 85.1094 145.648C90.7174 140.655 93.5215 133.779 93.5215 125.021Z"/>
</mask>
<path d="M117.029 45.9707C117.029 56.1882 113.764 64.3314 107.234 70.4004C100.704 76.3926 93.8288 80.7331 86.6074 83.4219C96.8249 87.6471 104.853 92.8711 110.691 99.0938C116.53 105.316 119.449 113.536 119.449 123.754C119.449 133.203 117.029 141.73 112.189 149.336C107.426 156.865 100.474 162.742 91.332 166.967C82.1901 171.192 71.5117 173.305 59.2969 173.305C41.5508 173.305 27.8379 168.964 18.1582 160.283C8.55534 151.525 3.75391 140.156 3.75391 126.174C3.75391 115.035 7.36458 106.085 14.5859 99.3242C21.8841 92.487 29.1439 87.4935 36.3652 84.3438C27.5306 79.9648 20.6549 74.9714 15.7383 69.3633C10.8984 63.6784 8.47852 56.265 8.47852 47.123C8.47852 32.834 13.5104 22.002 23.5742 14.627C33.7148 7.17513 47.5814 3.44922 65.1738 3.44922C81.8444 3.44922 94.6354 7.36719 103.547 15.2031C112.535 22.9622 117.029 33.2181 117.029 45.9707ZM33.2539 47.123C33.2539 52.4238 34.752 56.918 37.748 60.6055C40.7441 64.2161 44.5085 67.1354 49.041 69.3633C53.6504 71.5143 59.6426 73.9342 67.0176 76.623C73.0098 74.3952 78.6947 70.8613 84.0723 66.0215C89.5267 61.1048 92.2539 54.8053 92.2539 47.123C92.2539 39.9017 89.6419 34.1784 84.418 29.9531C79.2708 25.651 72.0495 23.5 62.7539 23.5C53.4583 23.5 46.1986 25.651 40.9746 29.9531C35.8275 34.1784 33.2539 39.9017 33.2539 47.123ZM93.5215 125.021C93.5215 119.49 91.9082 114.804 88.6816 110.963C85.4551 107.122 81.4219 103.972 76.582 101.514C71.819 99.0553 65.2507 96.1745 56.877 92.8711C50.1165 96.0208 43.8939 100.054 38.209 104.971C32.6009 109.811 29.7969 116.494 29.7969 125.021C29.7969 133.856 32.5625 140.732 38.0938 145.648C43.7018 150.565 51.5378 153.023 61.6016 153.023C71.6654 153.023 79.5013 150.565 85.1094 145.648C90.7174 140.655 93.5215 133.779 93.5215 125.021Z" fill="black"/>
<path d="M107.234 70.4004L109.263 72.6108L109.27 72.6043L109.277 72.5979L107.234 70.4004ZM86.6074 83.4219L85.5606 80.6104L78.403 83.2755L85.461 86.1942L86.6074 83.4219ZM110.691 99.0938L108.504 101.146L110.691 99.0938ZM112.189 149.336L109.658 147.725L109.654 147.732L112.189 149.336ZM18.1582 160.283L16.1367 162.5L16.1459 162.508L16.1552 162.517L18.1582 160.283ZM14.5859 99.3242L16.6362 101.514L16.637 101.514L14.5859 99.3242ZM36.3652 84.3438L37.5646 87.0936L43.4709 84.5174L37.6975 81.6558L36.3652 84.3438ZM15.7383 69.3633L13.454 71.308L13.4681 71.3246L13.4825 71.341L15.7383 69.3633ZM23.5742 14.627L25.3475 17.0468L25.3507 17.0444L23.5742 14.627ZM103.547 15.2031L101.566 17.456L101.576 17.4651L101.587 17.474L103.547 15.2031ZM37.748 60.6055L35.4197 62.4972L35.4295 62.5093L35.4394 62.5212L37.748 60.6055ZM49.041 69.3633L47.7177 72.0556L47.7449 72.069L47.7724 72.0818L49.041 69.3633ZM67.0176 76.623L65.99 79.4416L67.0277 79.8199L68.063 79.435L67.0176 76.623ZM84.0723 66.0215L86.0792 68.2514L86.0809 68.2498L84.0723 66.0215ZM84.418 29.9531L82.494 32.255L82.5126 32.2705L82.5314 32.2857L84.418 29.9531ZM40.9746 29.9531L42.8781 32.2719L42.8817 32.2689L40.9746 29.9531ZM88.6816 110.963L86.3845 112.892L88.6816 110.963ZM76.582 101.514L75.2061 104.18L75.2148 104.184L75.2234 104.188L76.582 101.514ZM56.877 92.8711L57.9779 90.0804L56.7786 89.6073L55.61 90.1518L56.877 92.8711ZM38.209 104.971L40.169 107.242L40.1714 107.24L38.209 104.971ZM38.0938 145.648L36.1007 147.891L36.1083 147.897L36.116 147.904L38.0938 145.648ZM85.1094 145.648L87.0871 147.904L87.0958 147.897L87.1044 147.889L85.1094 145.648ZM114.029 45.9707C114.029 55.4882 111.02 62.7866 105.192 68.2029L109.277 72.5979C116.509 65.8761 120.029 56.8881 120.029 45.9707H114.029ZM105.206 68.19C98.919 73.9593 92.3688 78.0755 85.5606 80.6104L87.6542 86.2333C95.2888 83.3907 102.49 78.8259 109.263 72.6108L105.206 68.19ZM85.461 86.1942C95.396 90.3026 103.03 95.3126 108.504 101.146L112.879 97.041C106.676 90.4296 98.2538 84.9916 87.7539 80.6496L85.461 86.1942ZM108.504 101.146C113.72 106.707 116.449 114.139 116.449 123.754H122.449C122.449 112.934 119.339 103.926 112.879 97.041L108.504 101.146ZM116.449 123.754C116.449 132.661 114.177 140.625 109.658 147.725L114.72 150.947C119.882 142.836 122.449 133.745 122.449 123.754H116.449ZM109.654 147.732C105.239 154.711 98.7614 160.228 90.0734 164.244L92.5907 169.69C102.187 165.255 109.614 159.018 114.725 150.94L109.654 147.732ZM90.0734 164.244C81.4009 168.252 71.1679 170.305 59.2969 170.305V176.305C71.8556 176.305 82.9793 174.132 92.5907 169.69L90.0734 164.244ZM59.2969 170.305C42.0182 170.305 29.117 166.082 20.1612 158.05L16.1552 162.517C26.5588 171.847 41.0834 176.305 59.2969 176.305V170.305ZM20.1797 158.067C11.2513 149.924 6.75391 139.384 6.75391 126.174H0.753906C0.753906 140.927 5.85939 153.127 16.1367 162.5L20.1797 158.067ZM6.75391 126.174C6.75391 115.749 10.1002 107.633 16.6362 101.514L12.5357 97.1342C4.62901 104.536 0.753906 114.32 0.753906 126.174H6.75391ZM16.637 101.514C23.7496 94.8502 30.7287 90.0752 37.5646 87.0936L35.1658 81.5939C27.5591 84.9118 20.0187 90.1238 12.5349 97.1349L16.637 101.514ZM37.6975 81.6558C29.107 77.3979 22.5836 72.6205 17.9941 67.3856L13.4825 71.341C18.7263 77.3222 25.9542 82.5318 35.033 87.0317L37.6975 81.6558ZM18.0226 67.4185C13.7421 62.3907 11.4785 55.7184 11.4785 47.123H5.47852C5.47852 56.8115 8.05479 64.9661 13.454 71.308L18.0226 67.4185ZM11.4785 47.123C11.4785 33.6309 16.1747 23.7688 25.3475 17.0468L21.8009 12.2072C10.8461 20.2351 5.47852 32.0371 5.47852 47.123H11.4785ZM25.3507 17.0444C34.8073 10.0953 47.9727 6.44922 65.1738 6.44922V0.449219C47.19 0.449219 32.6224 4.25499 21.7977 12.2095L25.3507 17.0444ZM65.1738 6.44922C81.4088 6.44922 93.3883 10.2654 101.566 17.456L105.528 12.9502C95.8825 4.46895 82.28 0.449219 65.1738 0.449219V6.44922ZM101.587 17.474C109.861 24.6172 114.029 34.0171 114.029 45.9707H120.029C120.029 32.4191 115.209 21.3073 105.507 12.9322L101.587 17.474ZM30.2539 47.123C30.2539 53.0282 31.9386 58.2128 35.4197 62.4972L40.0764 58.7137C37.5653 55.6231 36.2539 51.8194 36.2539 47.123H30.2539ZM35.4394 62.5212C38.7257 66.4816 42.835 69.6557 47.7177 72.0556L50.3644 66.6709C46.1819 64.6151 42.7626 61.9507 40.0567 58.6898L35.4394 62.5212ZM47.7724 72.0818C52.4907 74.2837 58.5719 76.7371 65.99 79.4416L68.0452 73.8045C60.7132 71.1314 54.81 68.7449 50.3097 66.6447L47.7724 72.0818ZM68.063 79.435C74.4531 77.0592 80.4574 73.311 86.0792 68.2514L82.0654 63.7916C76.932 68.4117 71.5664 71.7312 65.9721 73.8111L68.063 79.435ZM86.0809 68.2498C92.1987 62.7352 95.2539 55.6106 95.2539 47.123H89.2539C89.2539 54.0001 86.8547 59.4745 82.0636 63.7932L86.0809 68.2498ZM95.2539 47.123C95.2539 39.0736 92.291 32.4625 86.3046 27.6206L82.5314 32.2857C86.9929 35.8942 89.2539 40.7298 89.2539 47.123H95.2539ZM86.3419 27.6513C80.4793 22.7512 72.4835 20.5 62.7539 20.5V26.5C71.6155 26.5 78.0623 28.5508 82.494 32.255L86.3419 27.6513ZM62.7539 20.5C53.0209 20.5 44.999 22.7526 39.0675 27.6373L42.8817 32.2689C47.3982 28.5495 53.8957 26.5 62.7539 26.5V20.5ZM39.0711 27.6343C33.1657 32.4821 30.2539 39.09 30.2539 47.123H36.2539C36.2539 40.7134 38.4893 35.8747 42.8781 32.2719L39.0711 27.6343ZM96.5215 125.021C96.5215 118.862 94.7068 113.471 90.9788 109.033L86.3845 112.892C89.1096 116.137 90.5215 120.119 90.5215 125.021H96.5215ZM90.9788 109.033C87.472 104.859 83.1104 101.465 77.9406 98.8389L75.2234 104.188C79.7333 106.479 83.4382 109.385 86.3845 112.892L90.9788 109.033ZM77.958 98.8478C73.0657 96.3228 66.3916 93.3996 57.9779 90.0804L55.776 95.6618C64.1097 98.9494 70.5723 101.788 75.2061 104.18L77.958 98.8478ZM55.61 90.1518C48.5961 93.4196 42.1397 97.6048 36.2465 102.702L40.1714 107.24C45.6481 102.503 51.637 98.6221 58.1439 95.5904L55.61 90.1518ZM36.2489 102.7C29.8772 108.198 26.7969 115.768 26.7969 125.021H32.7969C32.7969 117.22 35.3246 111.423 40.169 107.242L36.2489 102.7ZM26.7969 125.021C26.7969 134.532 29.8048 142.294 36.1007 147.891L40.0868 143.406C35.3202 139.169 32.7969 133.181 32.7969 125.021H26.7969ZM36.116 147.904C42.4375 153.446 51.0666 156.023 61.6016 156.023V150.023C52.0089 150.023 44.9662 147.684 40.0715 143.393L36.116 147.904ZM61.6016 156.023C72.1365 156.023 80.7656 153.446 87.0871 147.904L83.1317 143.393C78.237 147.684 71.1942 150.023 61.6016 150.023V156.023ZM87.1044 147.889C93.4601 142.23 96.5215 134.479 96.5215 125.021H90.5215C90.5215 133.08 87.9748 139.08 83.1144 143.408L87.1044 147.889Z" fill="white" mask="url(#path-1-outside-1_13_239)"/>
</svg>
